PathFileType	4	(X/Y/Z)	C:\Users\Basilio\Documents\Thesis Gigler\squatting_fais\c3dfiles\047\SLS_pre_back2\markers_experimental.trc
DataRate	CameraRate	NumFrames	NumMarkers	Units	OrigDataRate	OrigDataStartFrame	OrigNumFrames
200.000000	200.000000	4	62	mm	200.000000	809	1295
Frame#	Time	FHD			LBHD			RBHD			C7			T10			CLAV			LSHO			LUUPA			LMUPA			LDUPA			LLEP			LMEP			LRAD			LUL			LRFIN			RSHO			RUPA1			RMUPA			RDUPA			RLEP			RMEP			RUL			RUFIN			LASI			RASI			USACR			LSACR			RSACR			LTHI1			LTHI2			LTHI3			LTHI4			LLFC			LMFC			LTIB1			LTIB2			LTIB3			LTIB4			LLMAL			LMMAL			LMT1			LMT2			LMT5			RTHI			RTHI2			RTHI3			RTHI4			RLFC			RMFC			RTIB1			RTIB2			RTIB3			RTIB4			RLMAL			RHEE			RMT1			RMT2			RMT5			RMMAL			RRAD			*60			*61			
		X1	Y1	Z1	X2	Y2	Z2	X3	Y3	Z3	X4	Y4	Z4	X5	Y5	Z5	X6	Y6	Z6	X7	Y7	Z7	X8	Y8	Z8	X9	Y9	Z9	X10	Y10	Z10	X11	Y11	Z11	X12	Y12	Z12	X13	Y13	Z13	X14	Y14	Z14	X15	Y15	Z15	X16	Y16	Z16	X17	Y17	Z17	X18	Y18	Z18	X19	Y19	Z19	X20	Y20	Z20	X21	Y21	Z21	X22	Y22	Z22	X23	Y23	Z23	X24	Y24	Z24	X25	Y25	Z25	X26	Y26	Z26	X27	Y27	Z27	X28	Y28	Z28	X29	Y29	Z29	X30	Y30	Z30	X31	Y31	Z31	X32	Y32	Z32	X33	Y33	Z33	X34	Y34	Z34	X35	Y35	Z35	X36	Y36	Z36	X37	Y37	Z37	X38	Y38	Z38	X39	Y39	Z39	X40	Y40	Z40	X41	Y41	Z41	X42	Y42	Z42	X43	Y43	Z43	X44	Y44	Z44	X45	Y45	Z45	X46	Y46	Z46	X47	Y47	Z47	X48	Y48	Z48	X49	Y49	Z49	X50	Y50	Z50	X51	Y51	Z51	X52	Y52	Z52	X53	Y53	Z53	X54	Y54	Z54	X55	Y55	Z55	X56	Y56	Z56	X57	Y57	Z57	X58	Y58	Z58	X59	Y59	Z59	X60	Y60	Z60	X61	Y61	Z61	X62	Y62	Z62	

810	4.045	134.923080444336	1317.736206054688	-1126.363891601563	-45.50670623779298	1299.872436523438	-1146.055419921875	-18.39665603637696	1306.9580078125	-999.9224243164065	-98.33694458007815	1178.290283203125	-1068.218017578125	-315.9694824218751	978.8479614257815	-1015.219604492188	-8.360363006591799	1047.31787109375	-1092.065307617188	-56.84169769287111	1093.438598632813	-1244.471435546875	-62.16733169555665	932.3433837890627	-1339.11474609375	-11.19899654388428	938.7420043945315	-1338.267456054688	-17.55075836181641	879.2068481445315	-1348.143432617188	43.83251571655274	838.5440673828127	-1352.636108398438	15.68951797485352	799.3586425781252	-1276.497680664063	229.3425903320313	899.5583496093752	-1187.903076171875	254.1787719726563	827.5207519531252	-1188.443481445313	317.8655395507813	896.9812622070315	-1181.270385742188	-0.3525545001029969	1100.921264648438	-941.0588989257815	37.5721549987793	945.2061157226565	-834.225524902344	79.57791137695314	948.1871337890627	-859.1156005859377	81.49058532714845	890.9951782226565	-839.2786254882815	142.4177398681641	849.414489746094	-858.0900878906252	88.91570281982423	797.527282714844	-910.0728759765627	303.1786193847657	836.4243164062502	-1064.284912109375	291.0335388183594	920.3309326171877	-1098.975463867188	-312.4205017089844	709.0491333007814	-1092.564331054688	-306.0117187500001	718.7713012695314	-865.564636230469	-424.8959960937501	876.3090820312502	-985.7874145507815	-450.7220458984376	854.9145507812502	-1011.935607910156	-445.5039672851564	854.1546630859377	-953.7656860351565	-356.3753662109376	638.3565673828126	-1175.81689453125	-275.9445800781251	617.3859863281251	-1174.858642578125	-246.114730834961	652.7484741210939	-1159.133178710938	-252.7292022705079	561.8419799804689	-1179.729370117188	-144.1715850830078	437.8867187500001	-1155.073974609375	-109.7825546264649	449.1175842285157	-1029.984619140625	-175.0882873535157	289.1774291992188	-1034.847045898438	-204.0476684570313	239.7284088134766	-1100.065673828125	-191.8710327148438	238.1260223388672	-1056.079467773438	-247.1983184814454	187.501693725586	-1020.072326660156	-340.7502441406251	122.3644027709961	-1061.0869140625	-316.9278259277344	141.5828094482422	-972.4548339843752	-208.6866302490235	62.78316116333009	-989.7935180664065	-207.0223388671876	62.59989547729494	-1035.009399414063	-258.0345153808594	51.79614639282228	-1078.614990234375	-411.6241760253907	577.4941406250001	-767.9163208007814	-375.2457885742188	521.3193359375001	-765.9988403320314	-345.8766479492188	518.9862060546876	-778.6574707031252	-406.0003662109376	442.7149047851564	-760.5860595703126	-412.9867553710939	312.9149169921876	-777.6188964843752	-422.161834716797	290.5492858886719	-909.4197387695315	-521.0506591796876	257.6798400878907	-784.3249511718752	-596.8527221679689	329.6605529785157	-745.1773071289064	-599.1893920898439	283.3285827636719	-753.2718505859376	-651.0222167968751	272.7953491210938	-780.8914794921877	-795.922546386719	347.2595520019532	-746.2845458984376	-811.6228637695315	403.4811096191407	-804.6499023437502	-889.783386230469	209.1762390136719	-803.928649902344	-888.609313964844	205.9833068847657	-760.9863281250001	-902.6909790039065	266.0115051269532	-711.6995849609376	-789.2764892578127	308.2773437500001	-830.928405761719	nan	nan	nan	nan	nan	nan	nan	nan	nan	
811	4.05	134.9188842773438	1317.75146484375	-1126.30029296875	-45.67794799804688	1299.868896484375	-1145.920043945313	-18.47968101501465	1306.93310546875	-999.8619384765627	-98.48044586181643	1178.2734375	-1068.077758789063	-316.0465087890626	978.802917480469	-1015.203552246094	-8.42680072784424	1047.316772460938	-1091.997924804688	-56.90076828002931	1093.446411132813	-1244.370727539063	-62.19688796997072	932.2991333007815	-1338.985229492188	-11.21503257751465	938.7333984375002	-1338.111938476563	-17.61886024475098	879.149841308594	-1348.067749023438	43.8488998413086	838.5191040039065	-1352.471923828125	15.69727802276612	799.376647949219	-1276.523315429688	229.295639038086	899.5363769531252	-1187.7666015625	254.0591583251954	827.6093750000002	-1188.205322265625	317.7928771972657	896.9636840820315	-1181.059814453125	-0.380616068840027	1100.944946289063	-940.9995727539065	37.49268341064454	945.2225341796877	-834.1374511718752	79.41696166992189	947.9697265625002	-858.348571777344	81.30490112304689	891.0034790039065	-839.0732421875002	142.2662506103516	849.4754028320315	-857.891296386719	88.95156097412111	797.5457153320315	-909.9397583007815	303.1814880371094	836.3945312500002	-1064.209106445313	290.9893188476563	920.3854980468752	-1098.79296875	-312.5655517578126	708.8417968750001	-1092.5166015625	-306.1704711914063	718.6789550781251	-865.5758056640627	-424.925262451172	876.227966308594	-985.7890625000002	-450.7113342285157	854.732360839844	-1011.955139160156	-445.5952148437501	854.1320800781252	-953.7159423828127	-356.2506408691407	638.3446044921876	-1175.832763671875	-275.9614562988282	617.4102172851564	-1174.844116210938	-246.0579681396485	652.7411499023439	-1159.125610351563	-252.6345367431641	561.8456420898439	-1179.727783203125	-144.083480834961	437.8776245117189	-1155.045043945313	-109.6931762695313	449.143524169922	-1029.877197265625	-175.0444793701172	289.1793823242188	-1034.765502929688	-203.9790344238282	239.7171630859376	-1100.024780273438	-191.7326049804688	238.1483764648438	-1056.079467773438	-247.1578674316407	187.5387725830078	-1020.090270996094	-340.6470947265626	122.3737182617188	-1061.140991210938	-316.9624328613282	141.5391693115235	-972.348815917969	-208.8383483886719	62.69056320190431	-989.690368652344	-207.1246490478516	62.55511856079103	-1035.0576171875	-258.0008850097657	51.75292205810548	-1078.627319335938	-411.621063232422	577.3858032226564	-767.8871459960939	-375.3602294921876	521.2244262695314	-765.9578857421876	-345.9243774414063	518.9725952148439	-778.5601196289065	-406.1013183593751	442.6192626953126	-760.5489501953126	-413.1012268066407	312.8027343750001	-777.6210937500002	-422.1999816894532	290.5184326171876	-909.331726074219	-521.1873779296876	257.5944213867188	-784.3964843750002	-597.0465087890626	329.6370239257813	-745.2142944335939	-599.3090209960939	283.3724060058594	-753.3429565429689	-651.1405639648439	272.7321777343751	-780.945983886719	-796.0118408203127	347.2779235839844	-746.3323364257814	-811.5594482421877	403.3002014160157	-804.943054199219	-889.8671875000002	209.2126159667969	-804.0203247070315	-888.858093261719	205.9894256591797	-760.8309936523439	-902.7935180664065	266.0207824707032	-711.7775878906251	-789.4174804687502	308.2686157226563	-830.9688110351565	nan	nan	nan	nan	nan	nan	nan	nan	nan	
812	4.055	134.9712219238282	1317.809814453125	-1126.20361328125	-45.75265502929688	1299.873657226563	-1145.76708984375	-18.695556640625	1306.933715820313	-999.6893310546877	-98.4842224121094	1178.2900390625	-1068.040771484375	-316.0314941406251	978.7502441406252	-1015.167846679688	-8.552236557006838	1047.29296875	-1091.857788085938	-56.88637542724611	1093.48486328125	-1244.302124023438	-62.1971893310547	932.2478637695315	-1338.8984375	-11.4483642578125	938.5650024414065	-1337.68212890625	-17.62995147705078	879.1890258789065	-1347.935546875	43.8426742553711	838.5538330078127	-1352.3740234375	15.73290729522705	799.396179199219	-1276.331909179688	229.2444000244141	899.5670166015627	-1187.633056640625	254.6383361816407	827.394958496094	-1188.119873046875	317.6410522460938	896.9629516601565	-1180.807861328125	-0.439183533191681	1100.965942382813	-940.8660278320315	37.44625473022462	945.2148437500002	-834.0183105468752	79.26779174804689	948.1853637695315	-858.7675781250002	81.1981658935547	891.063659667969	-838.9824218750002	142.1308288574219	849.5148925781252	-857.7437133789065	88.94068145751955	797.5487060546877	-909.8842773437502	303.2112121582032	836.4361572265627	-1064.00048828125	290.8833312988282	920.3869628906252	-1098.52197265625	-312.6354980468751	708.8915405273439	-1092.535034179688	-306.2827148437501	718.5742187500001	-865.564392089844	-425.0741271972657	876.1592407226565	-985.6920166015627	-450.8007202148439	854.813903808594	-1011.909484863281	-445.6005859375001	854.1149902343752	-953.7390747070315	-356.2545471191407	638.3279418945314	-1175.8359375	-275.9775085449219	617.3888549804689	-1174.808471679688	-246.0483093261719	652.7166137695314	-1159.048950195313	-252.5778808593751	561.8284301757814	-1179.694580078125	-144.0012359619141	437.8694458007814	-1155.012084960938	-109.644760131836	449.1652221679689	-1030.003173828125	-175.0536346435547	289.1807861328126	-1034.713012695313	-203.9911499023438	239.7125396728516	-1099.978881835938	-191.7780151367188	238.1582336425782	-1055.986938476563	-247.1356811523438	187.4949645996094	-1020.024658203125	-340.6425476074219	122.3518524169922	-1061.119018554688	-316.9211120605469	141.5845336914063	-972.3943481445315	-208.9193115234376	62.65232467651369	-989.7364501953127	-207.0162200927735	62.60178375244142	-1034.997192382813	-257.9663085937501	51.82522201538087	-1078.595703125	-411.6616516113282	577.3441772460939	-767.9628906250001	-375.5934753417969	521.1172485351564	-765.9125366210939	-345.9847717285157	518.9840087890626	-778.341979980469	-406.1690368652345	442.5711975097657	-760.5454101562501	-413.1547851562501	312.7292480468751	-777.704040527344	-421.7734985351564	290.4921569824219	-909.3335571289065	-521.2592163085939	257.5809936523438	-784.4313964843752	-597.1195678710939	329.6427001953126	-745.2253417968751	-599.4497680664064	283.4029541015626	-753.3785400390626	-651.2924194335939	272.6881408691407	-780.954040527344	-796.0551757812502	347.3167114257813	-746.8904418945314	-811.6189575195315	403.3629455566407	-805.0447387695315	-889.8896484375002	209.1807250976563	-804.114440917969	-888.9923095703127	205.9476928710938	-760.6228027343751	-902.9049072265627	266.0771179199219	-711.8787841796876	-789.3970947265627	308.2413635253907	-831.3742675781252	nan	nan	nan	nan	nan	nan	nan	nan	nan	
813	4.06	134.9820709228516	1318.00439453125	-1126.100219726563	-45.79302597045899	1299.89111328125	-1145.610595703125	-18.80818367004395	1306.9765625	-999.384948730469	-98.64472961425784	1178.3017578125	-1067.909301757813	-316.1348266601563	978.6717529296877	-1015.141540527344	-8.635874748229982	1047.322387695313	-1091.721313476563	-56.84283828735353	1093.48583984375	-1244.178466796875	-62.15914535522462	932.2808837890627	-1338.76806640625	-11.51691341400147	938.5942382812502	-1337.585571289063	-17.61632919311524	879.1936645507815	-1347.753540039063	43.87956619262696	838.546569824219	-1352.260498046875	15.68914794921875	799.432067871094	-1276.217651367188	229.2016906738282	899.5859375000002	-1187.3974609375	254.6111602783204	827.3796386718752	-1187.870239257813	317.5596618652344	896.9405517578127	-1180.601196289063	-0.6993703246116639	1100.927856445313	-940.6962890625002	37.37226486206055	945.1706542968752	-833.8689575195315	79.24857330322267	948.1861572265627	-858.6674804687502	81.15561676025392	891.1089477539065	-838.8649902343752	142.0614929199219	849.5661621093752	-857.6110839843752	88.83892822265626	797.6925048828127	-909.6591796875002	303.2085266113282	836.5050048828127	-1063.848754882813	290.9200134277344	920.5227661132815	-1098.414672851563	-312.4908142089844	708.8874511718751	-1092.450927734375	-306.2849121093751	718.5302124023439	-865.472595214844	-425.1505432128907	876.0657958984377	-985.6511230468752	-450.7832946777345	854.6909790039065	-1011.953002929688	-445.6434631347657	854.0614013671877	-953.7099609375002	-356.2065429687501	638.3195800781251	-1175.79345703125	-275.6064758300782	617.2092895507814	-1175.059326171875	-245.9360961914063	652.6713256835939	-1158.945922851563	-252.5490875244141	561.8109741210939	-1179.680541992188	-143.9844970703125	437.8578186035157	-1154.983642578125	-109.6501922607422	449.1565856933595	-1029.951049804688	-175.0571746826172	289.1752624511719	-1034.64111328125	-203.8120880126954	239.7654418945313	-1099.972778320313	-191.7469787597657	238.1604309082032	-1055.965576171875	-247.2114257812501	187.5330810546875	-1019.990661621094	-340.4672241210938	122.4659423828125	-1061.14892578125	-317.0845336914063	141.5668029785157	-972.3298339843752	-208.5760650634766	62.76973342895509	-989.7879028320315	-207.0570831298829	62.58570098876955	-1035.030883789063	-257.9931335449219	51.88069534301759	-1078.551147460938	-411.7849426269532	577.1770019531251	-767.9946289062501	-375.7425537109376	520.9810791015626	-765.9022827148439	-346.1901245117188	518.8395996093751	-778.2358398437502	-406.3663330078126	442.4292602539064	-760.4483032226564	-413.292449951172	312.6328430175782	-777.6463012695315	-421.9226989746095	290.4900817871094	-909.292175292969	-521.4401245117189	257.4447631835938	-784.3011474609377	-597.2114868164064	329.6596069335938	-745.2572021484376	-599.5601196289064	283.3629760742188	-753.4647827148439	-651.3803100585939	272.6488952636719	-781.0554809570315	-796.1213989257815	347.3291625976563	-747.0130004882814	-811.726745605469	403.3100585937501	-805.230407714844	-890.0017089843752	209.2077941894532	-804.2546997070315	-889.1374511718752	206.1204223632813	-760.8164672851564	-903.062194824219	266.1003723144532	-711.9258422851564	-789.4619140625002	308.2441711425782	-831.5145263671877	nan	nan	nan	nan	nan	nan	nan	nan	nan	
